<svg id="FD" xmlns="http://www.w3.org/2000/svg" viewBox="0 0 679.09 348.48"><rect id="dot" x="199" y="265" width="83" height="83" rx="12.5"/><path d="M679.09,174.42c0,99.88-49.73,174.06-191.46,174.06H323.05a10.3,10.3,0,0,1-10.3-10.3V10.67A10.3,10.3,0,0,1,323.05.37H487.63C629.36.37,679.09,74.13,679.09,174.42Zm-115.2,0c0-55.94-31.5-77.91-76.26-77.91H438.26a10.3,10.3,0,0,0-10.3,10.3V242a10.3,10.3,0,0,0,10.3,10.3h49.37C532.39,252.33,563.89,230,563.89,174.42Z"/><rect width="282" height="96" rx="10.02"/><path d="M113,143H269.89A10.11,10.11,0,0,1,280,153.11v62.79A10.11,10.11,0,0,1,269.89,226H113a0,0,0,0,1,0,0V143A0,0,0,0,1,113,143Z"/><path d="M10,143H115a0,0,0,0,1,0,0V337.93A10.07,10.07,0,0,1,104.93,348H10.07A10.07,10.07,0,0,1,0,337.93V153A10,10,0,0,1,10,143Z"/></svg>