<?xml version="1.0" encoding="utf-8"?>
<!-- Generator: Adobe Illustrator 26.1.0, SVG Export Plug-In . SVG Version: 6.00 Build 0)  -->
<svg version="1.1" xmlns="http://www.w3.org/2000/svg" xmlns:xlink="http://www.w3.org/1999/xlink" x="0px" y="0px"
	 viewBox="0 0 1080 1080" style="enable-background:new 0 0 1080 1080;" xml:space="preserve">
<style type="text/css">
	.st0{display:none;}
	.st1{display:inline;}
	.st2{fill:#FFFFFF;}
</style>
<g id="unhide_to_see_logo" class="st0">
	<g class="st1">
		<rect x="0.5" y="0.5" width="1079" height="1079"/>
		<path d="M1079,1v1078H1V1H1079 M1080,0H0v1080h1080V0L1080,0z"/>
	</g>
</g>
<g id="FD">
	<path id="dot" class="st2" d="M496.5,713H438.5c-6.9,0-12.5-5.6-12.5-12.5V642.5c0-6.9,5.6-12.5,12.5-12.5h58.01
		c6.9,0,12.5,5.6,12.5,12.5v58.01C509,707.4,503.4,713,496.5,713z"/>
	<path class="st2" d="M906.09,539.42c0,99.87-49.73,174.05-191.46,174.05H550.05c-5.69,0-10.3-4.61-10.3-10.3v-327.5
		c0-5.69,4.61-10.3,10.3-10.3h164.58C856.36,365.37,906.09,439.13,906.09,539.42z M790.89,539.42c0-55.95-31.5-77.91-76.25-77.91
		h-49.37c-5.69,0-10.3,4.61-10.3,10.3v135.22c0,5.69,4.61,10.3,10.3,10.3h49.37C759.39,617.33,790.89,594.95,790.89,539.42z"/>
	<path class="st2" d="M498.98,461H237.02c-5.53,0-10.02-4.49-10.02-10.02v-75.96c0-5.53,4.49-10.02,10.02-10.02h261.96
		c5.53,0,10.02,4.49,10.02,10.02v75.96C509,456.51,504.51,461,498.98,461z"/>
	<path class="st2" d="M340,591h156.89c5.58,0,10.11-4.52,10.11-10.11v-62.79c0-5.58-4.52-10.11-10.11-10.11H340V591z"/>
	<path class="st2" d="M237.01,508H342v194.93c0,5.56-4.51,10.07-10.07,10.07h-94.85c-5.56,0-10.07-4.51-10.07-10.07V518.01
		C227,512.48,231.48,508,237.01,508z"/>
</g>
</svg>
